<?xml version="1.0" encoding="UTF-8" standalone="no"?>
<!DOCTYPE svg PUBLIC "-//W3C//DTD SVG 1.1//EN" "http://www.w3.org/Graphics/SVG/1.1/DTD/svg11.dtd">
<svg width="100%" height="100%" viewBox="0 0 1506 599" version="1.1" xmlns="http://www.w3.org/2000/svg" xmlns:xlink="http://www.w3.org/1999/xlink" xml:space="preserve" xmlns:serif="http://www.serif.com/" style="fill-rule:evenodd;clip-rule:evenodd;stroke-linejoin:round;stroke-miterlimit:2;">
    <g id="Plan-de-travail1" serif:id="Plan de travail1" transform="matrix(0.938964,0,0,1,176.144,30.0034)">
        <rect x="-187.594" y="-30.003" width="1603.37" height="598.027" style="fill:none;"/>
        <g transform="matrix(1.065,0,0,1,-178.493,0.996552)">
            <path d="M256.129,119.534C251.416,119.534 247.598,115.716 247.598,111.007L247.598,59.829C247.598,55.121 251.416,51.303 256.129,51.303C260.837,51.303 264.656,55.121 264.656,59.829L264.656,111.007C264.656,115.716 260.837,119.534 256.129,119.534Z" style="fill:rgb(128,47,52);fill-rule:nonzero;"/>
        </g>
        <g transform="matrix(1.065,0,0,1,-178.493,0.996552)">
            <path d="M281.714,34.245C281.714,48.374 270.259,59.829 256.129,59.829C241.995,59.829 230.54,48.374 230.54,34.245C230.54,20.111 241.995,8.656 256.129,8.656C270.259,8.656 281.714,20.111 281.714,34.245Z" style="fill:rgb(227,242,240);fill-rule:nonzero;"/>
        </g>
        <g transform="matrix(1.065,0,0,1,-178.493,0.996552)">
            <path d="M256.129,460.7C251.416,460.7 247.598,456.877 247.598,452.169L247.598,400.995C247.598,396.283 251.416,392.464 256.129,392.464C260.837,392.464 264.656,396.283 264.656,400.995L264.656,452.169C264.656,456.877 260.837,460.7 256.129,460.7Z" style="fill:rgb(128,47,52);fill-rule:nonzero;"/>
        </g>
        <g transform="matrix(1.065,0,0,1,-178.493,0.996552)">
            <path d="M281.714,477.757C281.714,491.887 270.259,503.342 256.129,503.342C241.995,503.342 230.54,491.887 230.54,477.757C230.54,463.624 241.995,452.169 256.129,452.169C270.259,452.169 281.714,463.624 281.714,477.757Z" style="fill:rgb(227,242,240);fill-rule:nonzero;"/>
        </g>
        <g transform="matrix(1.065,0,0,1,-178.493,0.996552)">
            <path d="M136.72,187.766C135.224,187.769 133.752,187.375 132.456,186.626L88.103,161.037C85.445,159.526 83.797,156.703 83.793,153.642C83.785,150.581 85.417,147.75 88.072,146.228C90.727,144.701 93.995,144.717 96.634,146.267L140.987,171.852C144.329,173.784 145.957,177.716 144.958,181.445C143.958,185.173 140.581,187.766 136.72,187.766Z" style="fill:rgb(128,47,52);fill-rule:nonzero;"/>
        </g>
        <g transform="matrix(1.065,0,0,1,-178.493,0.996552)">
            <path d="M95.834,140.859C95.834,154.989 84.375,166.444 70.245,166.444C56.115,166.444 44.656,154.989 44.656,140.859C44.656,126.726 56.115,115.271 70.245,115.271C84.375,115.271 95.834,126.726 95.834,140.859Z" style="fill:rgb(227,242,240);fill-rule:nonzero;"/>
        </g>
        <g transform="matrix(1.065,0,0,1,-178.493,0.996552)">
            <path d="M419.887,366.879C418.388,366.879 416.92,366.485 415.623,365.735L371.271,340.147C367.226,337.777 365.851,332.584 368.198,328.523C370.54,324.467 375.725,323.057 379.798,325.377L424.15,350.961C427.492,352.894 429.124,356.83 428.125,360.558C427.125,364.287 423.744,366.879 419.887,366.879Z" style="fill:rgb(128,47,52);fill-rule:nonzero;"/>
        </g>
        <g transform="matrix(1.065,0,0,1,-178.493,0.996552)">
            <path d="M467.597,371.143C467.597,385.272 456.142,396.732 442.009,396.732C427.879,396.732 416.424,385.272 416.424,371.143C416.424,357.009 427.879,345.554 442.009,345.554C456.142,345.554 467.597,357.009 467.597,371.143Z" style="fill:rgb(227,242,240);fill-rule:nonzero;"/>
        </g>
        <g transform="matrix(1.065,0,0,1,-178.493,0.996552)">
            <path d="M92.414,366.879C88.552,366.879 85.175,364.287 84.176,360.558C83.176,356.83 84.804,352.894 88.146,350.961L132.499,325.377C135.138,323.827 138.406,323.815 141.061,325.338C143.716,326.86 145.348,329.691 145.34,332.752C145.337,335.813 143.689,338.636 141.026,340.147L96.677,365.735C95.381,366.485 93.909,366.879 92.414,366.879Z" style="fill:rgb(128,47,52);fill-rule:nonzero;"/>
        </g>
        <g transform="matrix(1.065,0,0,1,-178.493,0.996552)">
            <path d="M95.834,371.143C95.834,385.272 84.375,396.732 70.245,396.732C56.115,396.732 44.656,385.272 44.656,371.143C44.656,357.009 56.115,345.554 70.245,345.554C84.375,345.554 95.834,357.009 95.834,371.143Z" style="fill:rgb(227,242,240);fill-rule:nonzero;"/>
        </g>
        <g transform="matrix(1.065,0,0,1,-178.493,0.996552)">
            <path d="M375.534,187.766C371.677,187.766 368.295,185.173 367.296,181.445C366.296,177.716 367.928,173.784 371.271,171.852L415.623,146.267C418.263,144.717 421.531,144.701 424.182,146.228C426.837,147.75 428.472,150.581 428.465,153.642C428.457,156.703 426.813,159.526 424.15,161.037L379.798,186.626C378.505,187.375 377.033,187.769 375.534,187.766Z" style="fill:rgb(128,47,52);fill-rule:nonzero;"/>
        </g>
        <g transform="matrix(1.065,0,0,1,-178.493,0.996552)">
            <path d="M467.597,140.859C467.597,154.989 456.142,166.444 442.009,166.444C427.879,166.444 416.424,154.989 416.424,140.859C416.424,126.726 427.879,115.271 442.009,115.271C456.142,115.271 467.597,126.726 467.597,140.859Z" style="fill:rgb(227,242,240);fill-rule:nonzero;"/>
        </g>
        <g transform="matrix(1.065,0,0,1,-178.493,0.996552)">
            <path d="M375.534,179.239L331.782,204.23L256.129,162.181L180.475,204.23L136.72,179.239L256.129,111.007L375.534,179.239Z" style="fill:rgb(164,247,237);fill-rule:nonzero;"/>
        </g>
        <g transform="matrix(1.065,0,0,1,-178.493,0.996552)">
            <path d="M256.129,349.821L256.129,400.995L136.72,332.763L136.72,179.239L180.475,204.23L179.366,204.827L179.366,307.175L256.129,349.821Z" style="fill:rgb(164,247,237);fill-rule:nonzero;"/>
        </g>
        <g transform="matrix(1.065,0,0,1,-178.493,0.996552)">
            <path d="M375.534,179.239L375.534,332.763L256.129,400.995L256.129,349.821L332.891,307.175L332.891,204.827L331.782,204.23L375.534,179.239Z" style="fill:rgb(164,247,237);fill-rule:nonzero;"/>
        </g>
        <g transform="matrix(1.065,0,0,1,-178.493,0.996552)">
            <path d="M331.782,204.23L256.129,247.47L180.475,204.23L256.129,162.181L331.782,204.23Z" style="fill:rgb(227,242,240);fill-rule:nonzero;"/>
        </g>
        <g transform="matrix(1.065,0,0,1,-178.493,0.996552)">
            <path d="M332.891,204.827L332.891,307.175L256.129,349.821L256.129,247.47L331.782,204.23L332.891,204.827Z" style="fill:rgb(164,247,237);fill-rule:nonzero;"/>
        </g>
        <g transform="matrix(1.065,0,0,1,-178.493,0.996552)">
            <path d="M256.129,247.47L256.129,349.821L179.366,307.175L179.366,204.827L180.475,204.23L256.129,247.47Z" style="fill:rgb(227,242,240);fill-rule:nonzero;"/>
        </g>
        <g transform="matrix(1.065,0,0,1,-178.493,0.996552)">
            <path d="M48.088,128.065C42.243,138.076 43.887,150.768 52.086,158.964C60.285,167.159 72.978,168.795 82.989,162.946C70.811,155.867 66.645,140.274 73.673,128.065C75.941,124.176 79.209,120.967 83.133,118.769L83.04,118.683C77.16,115.29 70.175,114.373 63.62,116.133C57.064,117.894 51.477,122.185 48.088,128.065Z" style="fill:white;fill-rule:nonzero;"/>
        </g>
        <g transform="matrix(1.065,0,0,1,-178.493,0.996552)">
            <path d="M162.309,187.766C160.809,187.769 159.337,187.375 158.045,186.626L113.692,161.037C113.286,160.74 112.907,160.408 112.556,160.049C108.328,163.781 102.979,166.007 97.349,166.378L132.456,186.626C133.752,187.375 135.224,187.769 136.72,187.766L136.72,324.369C135.232,324.311 133.76,324.658 132.456,325.377L97.384,345.624C103.014,345.995 108.363,348.221 112.591,351.953C112.943,351.59 113.321,351.262 113.727,350.961L158.076,325.377C159.38,324.658 160.856,324.311 162.344,324.369L162.344,187.766L162.309,187.766Z" style="fill:white;fill-rule:nonzero;"/>
        </g>
        <g transform="matrix(1.065,0,0,1,-178.493,0.996552)">
            <path d="M73.673,383.937C66.645,371.728 70.811,356.135 82.989,349.052C72.244,342.88 58.618,345.304 50.669,354.807C42.716,364.31 42.732,378.151 50.704,387.638C58.681,397.122 72.31,399.515 83.04,393.319L83.133,393.249C79.205,391.043 75.941,387.83 73.673,383.937Z" style="fill:white;fill-rule:nonzero;"/>
        </g>
        <g transform="matrix(1.065,0,0,1,-178.493,0.996552)">
            <path d="M260.357,118.41L164.089,173.421L140.952,186.641L132.491,171.836L155.628,158.616L251.897,103.601L260.357,118.41Z" style="fill:white;fill-rule:nonzero;"/>
        </g>
        <g transform="matrix(1.065,0,0,1,-178.493,0.996552)">
            <path d="M204.288,140.629C203.147,138.689 201.32,137.248 199.169,136.592C194.636,135.483 190.025,138.103 188.655,142.562C188.393,143.651 188.342,144.779 188.502,145.888C188.627,146.997 188.971,148.071 189.518,149.047C191.216,152.065 194.578,153.755 198.013,153.318C201.453,152.885 204.288,150.413 205.186,147.067L205.439,145.455C205.482,144.885 205.451,144.311 205.346,143.749C205.291,143.214 205.158,142.687 204.955,142.187C204.768,141.652 204.545,141.133 204.288,140.629Z" style="fill:rgb(0,241,214);fill-rule:nonzero;"/>
            <path d="M103.006,362.077L136.72,342.595L247.598,405.942L247.598,444.852C230.966,449.147 220.119,465.139 222.282,482.181C224.449,499.227 238.946,511.998 256.129,511.998C273.308,511.998 287.808,499.227 289.971,482.181C292.138,465.139 281.292,449.147 264.656,444.852L264.656,405.942L375.534,342.595L409.275,362.077C406.398,372.31 408.475,383.305 414.889,391.781C421.304,400.261 431.319,405.247 441.95,405.259C455.229,405.305 467.328,397.637 472.962,385.612C478.592,373.587 476.737,359.387 468.203,349.216C459.668,339.042 446.003,334.747 433.181,338.202C427.321,339.799 421.999,342.946 417.779,347.311L384.065,327.832L384.065,184.17L417.779,164.738C421.999,169.107 427.321,172.254 433.181,173.847C451.383,178.723 470.088,167.928 474.965,149.73C479.845,131.528 469.05,112.823 450.852,107.942C432.654,103.062 413.945,113.857 409.064,132.055C407.506,137.935 407.573,144.123 409.252,149.968L375.534,169.404L264.656,106.06L264.656,67.15C281.292,62.855 292.138,46.859 289.971,29.817C287.808,12.775 273.308,0 256.129,0C238.946,0 224.449,12.775 222.282,29.817C220.119,46.859 230.966,62.855 247.598,67.15L247.598,106.06L222.275,120.557C218.183,122.896 216.762,128.104 219.1,132.196C221.435,136.287 226.647,137.709 230.735,135.374L256.129,120.83L358.347,179.239L331.747,194.438L260.263,154.727C257.691,153.298 254.563,153.298 251.99,154.727L180.51,194.438L153.906,179.239L171.495,169.193C174.139,167.678 175.778,164.871 175.794,161.825C175.81,158.776 174.197,155.953 171.562,154.415C168.93,152.881 165.678,152.865 163.035,154.376L136.72,169.404L102.979,149.925C107.254,134.976 100.773,119.034 87.28,111.312C73.907,103.589 57.013,105.807 46.089,116.727C35.169,127.643 32.943,144.537 40.666,157.913C48.389,171.286 64.131,177.806 79.045,173.804C84.914,172.226 90.243,169.095 94.475,164.738L128.193,184.17L128.193,327.832L94.475,347.303C82.462,335.02 63.174,333.611 49.502,344.016C35.829,354.425 32.049,373.392 40.693,388.244C47.592,400.195 61.011,406.812 74.692,405.013C88.373,403.209 99.621,393.343 103.194,380.013C104.751,374.126 104.689,367.93 103.006,362.077ZM145.251,193.934L170.836,208.552L170.836,307.175C170.839,310.271 172.518,313.125 175.228,314.628L247.598,354.834L247.598,386.299L145.251,327.817L145.251,193.934ZM247.598,252.417L247.598,335.321L187.893,302.142L187.893,218.301L247.598,252.417ZM264.656,252.417L324.36,218.301L324.36,302.15L264.656,335.321L264.656,252.417ZM273.187,477.757C273.187,487.179 265.55,494.815 256.129,494.815C246.708,494.815 239.071,487.179 239.071,477.757C239.071,468.336 246.708,460.7 256.129,460.7C265.55,460.7 273.187,468.336 273.187,477.757ZM264.656,386.299L264.656,354.834L337.026,314.628C339.736,313.125 341.418,310.271 341.418,307.175L341.418,208.552L367.007,193.934L367.007,327.84L264.656,386.299ZM437.593,354.663C439.049,354.276 440.552,354.081 442.063,354.085C448.15,354.093 453.772,357.349 456.814,362.624C459.855,367.902 459.851,374.399 456.81,379.67C451.996,387.599 441.728,390.231 433.696,385.593C425.661,380.954 422.811,370.745 427.274,362.612C429.511,358.692 433.228,355.83 437.593,354.663ZM433.482,126.085C436.07,124.578 439.014,123.79 442.009,123.798C450.571,123.798 457.805,130.142 458.922,138.63C460.043,147.118 454.694,155.118 446.428,157.335C438.159,159.549 429.527,155.294 426.251,147.387C422.975,139.477 426.067,130.365 433.482,126.085ZM239.071,34.245C239.071,24.824 246.708,17.187 256.129,17.187C265.55,17.187 273.187,24.824 273.187,34.245C273.187,43.666 265.55,51.303 256.129,51.303C246.708,51.303 239.071,43.666 239.071,34.245ZM256.129,171.938L314.432,204.347L256.129,237.655L197.822,204.332L256.129,171.938ZM74.665,157.335C66.802,159.444 58.548,155.707 54.948,148.41C51.344,141.109 53.402,132.285 59.856,127.331C66.31,122.372 75.368,122.669 81.49,128.034C87.608,133.398 89.087,142.339 85.019,149.386C82.766,153.314 79.038,156.176 74.665,157.335ZM78.776,385.917C73.486,389.185 66.841,389.321 61.425,386.268C56.006,383.215 52.68,377.46 52.742,371.24C52.805,365.025 56.24,359.332 61.714,356.388C64.303,354.877 67.247,354.081 70.245,354.085C71.744,354.089 73.24,354.284 74.688,354.674C81.349,356.463 86.276,362.085 87.174,368.921C88.076,375.758 84.769,382.465 78.799,385.917L78.776,385.917Z" style="fill:rgb(0,241,214);fill-rule:nonzero;"/>
            <path d="M315.829,17.187L332.891,17.187C337.6,17.187 341.418,13.368 341.418,8.656C341.418,3.947 337.6,0.129 332.891,0.129L315.829,0.129C311.121,0.129 307.303,3.947 307.303,8.656C307.303,13.368 311.121,17.187 315.829,17.187Z" style="fill:rgb(0,241,214);fill-rule:nonzero;"/>
            <path d="M392.592,0.129L367.007,0.129C362.295,0.129 358.476,3.947 358.476,8.656C358.476,13.368 362.295,17.187 367.007,17.187L392.592,17.187C397.304,17.187 401.123,13.368 401.123,8.656C401.123,3.947 397.304,0.129 392.592,0.129Z" style="fill:rgb(0,241,214);fill-rule:nonzero;"/>
            <path d="M401.123,42.772C401.123,38.063 397.304,34.245 392.592,34.245L315.829,34.245C311.121,34.245 307.303,38.063 307.303,42.772C307.303,47.484 311.121,51.303 315.829,51.303L392.592,51.303C397.304,51.303 401.123,47.484 401.123,42.772Z" style="fill:rgb(0,241,214);fill-rule:nonzero;"/>
            <path d="M315.829,68.36C311.121,68.36 307.303,72.179 307.303,76.891C307.303,81.6 311.121,85.418 315.829,85.418L341.418,85.418C346.131,85.418 349.949,81.6 349.949,76.891C349.949,72.179 346.131,68.36 341.418,68.36L315.829,68.36Z" style="fill:rgb(0,241,214);fill-rule:nonzero;"/>
            <path d="M426.708,187.766C421.999,187.766 418.181,191.588 418.181,196.296C418.181,201.005 421.999,204.827 426.708,204.827L443.766,204.827C448.478,204.827 452.296,201.005 452.296,196.296C452.296,191.588 448.478,187.766 443.766,187.766L426.708,187.766Z" style="fill:rgb(0,241,214);fill-rule:nonzero;"/>
            <path d="M503.47,187.766L477.885,187.766C473.173,187.766 469.354,191.588 469.354,196.296C469.354,201.005 473.173,204.827 477.885,204.827L503.47,204.827C508.183,204.827 512.001,201.005 512.001,196.296C512.001,191.588 508.183,187.766 503.47,187.766Z" style="fill:rgb(0,241,214);fill-rule:nonzero;"/>
            <path d="M503.47,221.885L426.708,221.885C421.999,221.885 418.181,225.704 418.181,230.412C418.181,235.125 421.999,238.943 426.708,238.943L503.47,238.943C508.183,238.943 512.001,235.125 512.001,230.412C512.001,225.704 508.183,221.885 503.47,221.885Z" style="fill:rgb(0,241,214);fill-rule:nonzero;"/>
            <path d="M452.296,273.059C457.005,273.059 460.827,269.241 460.827,264.528C460.827,259.819 457.005,256.001 452.296,256.001L426.708,256.001C421.999,256.001 418.181,259.819 418.181,264.528C418.181,269.241 421.999,273.059 426.708,273.059L452.296,273.059Z" style="fill:rgb(0,241,214);fill-rule:nonzero;"/>
            <path d="M85.546,204.827C90.259,204.827 94.077,201.005 94.077,196.296C94.077,191.588 90.259,187.766 85.546,187.766L68.488,187.766C63.78,187.766 59.957,191.588 59.957,196.296C59.957,201.005 63.78,204.827 68.488,204.827L85.546,204.827Z" style="fill:rgb(0,241,214);fill-rule:nonzero;"/>
            <path d="M8.784,204.827L34.372,204.827C39.081,204.827 42.899,201.005 42.899,196.296C42.899,191.588 39.081,187.766 34.372,187.766L8.784,187.766C4.075,187.766 0.257,191.588 0.257,196.296C0.257,201.005 4.075,204.827 8.784,204.827Z" style="fill:rgb(0,241,214);fill-rule:nonzero;"/>
            <path d="M94.077,230.412C94.077,225.704 90.259,221.885 85.546,221.885L8.784,221.885C4.075,221.885 0.257,225.704 0.257,230.412C0.257,235.125 4.075,238.943 8.784,238.943L85.546,238.943C90.259,238.943 94.077,235.125 94.077,230.412Z" style="fill:rgb(0,241,214);fill-rule:nonzero;"/>
            <path d="M85.546,256.001L59.957,256.001C55.249,256.001 51.43,259.819 51.43,264.528C51.43,269.241 55.249,273.059 59.957,273.059L85.546,273.059C90.259,273.059 94.077,269.241 94.077,264.528C94.077,259.819 90.259,256.001 85.546,256.001Z" style="fill:rgb(0,241,214);fill-rule:nonzero;"/>
            <path d="M426.708,418.053C421.999,418.053 418.181,421.871 418.181,426.58C418.181,431.292 421.999,435.111 426.708,435.111L443.766,435.111C448.478,435.111 452.296,431.292 452.296,426.58C452.296,421.871 448.478,418.053 443.766,418.053L426.708,418.053Z" style="fill:rgb(0,241,214);fill-rule:nonzero;"/>
            <path d="M503.47,418.053L477.885,418.053C473.173,418.053 469.354,421.871 469.354,426.58C469.354,431.292 473.173,435.111 477.885,435.111L503.47,435.111C508.183,435.111 512.001,431.292 512.001,426.58C512.001,421.871 508.183,418.053 503.47,418.053Z" style="fill:rgb(0,241,214);fill-rule:nonzero;"/>
            <path d="M503.47,452.169L426.708,452.169C421.999,452.169 418.181,455.987 418.181,460.7C418.181,465.408 421.999,469.227 426.708,469.227L503.47,469.227C508.183,469.227 512.001,465.408 512.001,460.7C512.001,455.987 508.183,452.169 503.47,452.169Z" style="fill:rgb(0,241,214);fill-rule:nonzero;"/>
            <path d="M452.296,486.284L426.708,486.284C421.999,486.284 418.181,490.103 418.181,494.815C418.181,499.524 421.999,503.342 426.708,503.342L452.296,503.342C457.005,503.342 460.827,499.524 460.827,494.815C460.827,490.103 457.005,486.284 452.296,486.284Z" style="fill:rgb(0,241,214);fill-rule:nonzero;"/>
            <path d="M196.424,426.58L179.366,426.58C174.654,426.58 170.836,430.398 170.836,435.111C170.836,439.819 174.654,443.638 179.366,443.638L196.424,443.638C201.133,443.638 204.955,439.819 204.955,435.111C204.955,430.398 201.133,426.58 196.424,426.58Z" style="fill:rgb(0,241,214);fill-rule:nonzero;"/>
            <path d="M119.662,443.638L145.251,443.638C149.959,443.638 153.778,439.819 153.778,435.111C153.778,430.398 149.959,426.58 145.251,426.58L119.662,426.58C114.953,426.58 111.135,430.398 111.135,435.111C111.135,439.819 114.953,443.638 119.662,443.638Z" style="fill:rgb(0,241,214);fill-rule:nonzero;"/>
            <path d="M196.424,460.7L119.662,460.7C114.953,460.7 111.135,464.518 111.135,469.227C111.135,473.939 114.953,477.757 119.662,477.757L196.424,477.757C201.133,477.757 204.955,473.939 204.955,469.227C204.955,464.518 201.133,460.7 196.424,460.7Z" style="fill:rgb(0,241,214);fill-rule:nonzero;"/>
            <path d="M196.424,494.815L170.836,494.815C166.127,494.815 162.309,498.634 162.309,503.342C162.309,508.055 166.127,511.873 170.836,511.873L196.424,511.873C201.133,511.873 204.955,508.055 204.955,503.342C204.955,498.634 201.133,494.815 196.424,494.815Z" style="fill:rgb(0,241,214);fill-rule:nonzero;"/>
        </g>
        <g transform="matrix(1.065,0,0,1,-299.985,-22.2909)">
            <text x="688.069px" y="210.783px" style="font-family:'Audiowide-Regular', 'Audiowide';font-size:170px;fill:rgb(36,202,183);">Dev<tspan x="1052.06px 1105.52px 1219.49px " y="210.783px 210.783px 210.783px "> To</tspan>ols</text>
        </g>
        <g transform="matrix(1.065,0,0,1,-348.898,14.6041)">
            <text x="735.748px" y="405.585px" style="font-family:'Audiowide-Regular', 'Audiowide';font-size:144px;fill:rgb(36,202,183);">Libr<tspan x="1049.9px " y="405.585px ">a</tspan>ry</text>
        </g>
    </g>
</svg>
